<?xml version="1.0" encoding="UTF-8" standalone="no"?>
<!-- Created with Inkscape (http://www.inkscape.org/) -->

<svg
   xmlns:dc="http://purl.org/dc/elements/1.1/"
   xmlns:cc="http://creativecommons.org/ns#"
   xmlns:rdf="http://www.w3.org/1999/02/22-rdf-syntax-ns#"
   xmlns:svg="http://www.w3.org/2000/svg"
   xmlns="http://www.w3.org/2000/svg"
   xmlns:sodipodi="http://sodipodi.sourceforge.net/DTD/sodipodi-0.dtd"
   xmlns:inkscape="http://www.inkscape.org/namespaces/inkscape"
   width="259.10629mm"
   height="200.88449mm"
   viewBox="0 0 259.10628 200.88452"
   version="1.1"
   id="svg8"
   inkscape:version="0.92.3 (2405546, 2018-03-11)"
   sodipodi:docname="14.svg">
  <defs
     id="defs2" />
  <sodipodi:namedview
     id="base"
     pagecolor="#ffffff"
     bordercolor="#666666"
     borderopacity="1.0"
     inkscape:pageopacity="0.0"
     inkscape:pageshadow="2"
     inkscape:zoom="0.175"
     inkscape:cx="1828.2407"
     inkscape:cy="-635.84154"
     inkscape:document-units="mm"
     inkscape:current-layer="layer1"
     showgrid="false"
     fit-margin-top="0"
     fit-margin-left="0"
     fit-margin-right="0"
     fit-margin-bottom="0"
     inkscape:window-width="1920"
     inkscape:window-height="1001"
     inkscape:window-x="-9"
     inkscape:window-y="-9"
     inkscape:window-maximized="1" />
  <metadata
     id="metadata5">
    <rdf:RDF>
      <cc:Work
         rdf:about="">
        <dc:format>image/svg+xml</dc:format>
        <dc:type
           rdf:resource="http://purl.org/dc/dcmitype/StillImage" />
        <dc:title></dc:title>
      </cc:Work>
    </rdf:RDF>
  </metadata>
  <g
     inkscape:label="Layer 1"
     inkscape:groupmode="layer"
     id="layer1"
     transform="translate(888.90281,7.8467574)">
    <path
       style="fill:#BBBBBB;stroke-width:1.06951296"
       d="m -782.7716,187.1754 c -0.0222,-3.44611 -0.24207,-7.95013 -0.48856,-10.00894 -0.24648,-2.05882 -0.76026,-11.32347 -1.14171,-20.58813 -0.38147,-9.26465 -1.02792,-16.84483 -1.43657,-16.84483 -0.40866,0 -1.20023,0.43387 -1.75905,0.96416 -0.55882,0.53028 -5.10693,2.64779 -10.1069,4.70558 -14.41041,5.93072 -36.1376,16.08247 -45.4543,21.2379 -4.70586,2.60401 -10.63182,5.56441 -13.1688,6.57869 -4.23345,1.69249 -4.90359,1.70608 -8.15065,0.16525 -4.19893,-1.99253 -6.08164,-5.42662 -9.65389,-17.60888 -2.27453,-7.7567 -10.20291,-45.13712 -10.20291,-48.10427 0,-0.54803 1.80481,-1.27197 4.01068,-1.60878 2.20587,-0.33681 5.75022,-1.4861 7.87634,-2.55396 l 3.86566,-1.94159 0.58064,10.79422 c 0.54651,10.15962 2.70162,22.41087 6.97854,39.67108 1.71304,6.91324 2.06334,7.47333 4.57405,7.31339 1.49542,-0.0953 12.55736,-4.9861 24.5821,-10.8685 40.85106,-19.98401 61.40812,-29.06503 65.79563,-29.06503 0.74352,0 1.63128,1.32352 1.97279,2.94116 1.00497,4.76015 3.6532,36.93775 4.4549,54.12971 l 0.74119,15.89463 -4.69518,-0.77626 c -2.58235,-0.42692 -4.74264,-0.84157 -4.80065,-0.92144 -1.23996,-1.70709 -7.91588,-15.09028 -7.91588,-15.86895 0,-0.59869 2.4064,-3.72153 5.34756,-6.93963 2.94116,-3.2181 5.34757,-6.21358 5.34757,-6.65664 0,-0.44305 -2.64705,-2.62863 -5.88232,-4.85686 -3.23528,-2.22822 -5.88232,-4.42568 -5.88232,-4.88325 0,-0.45756 1.71188,-5.26457 3.80419,-10.68225 3.98494,-10.31834 4.28251,-14.83315 0.38031,-5.77019 -1.24219,2.88501 -3.44273,7.89251 -4.8901,11.12779 l -2.63157,5.88232 3.08151,2.67378 c 1.69484,1.47058 4.48296,3.68219 6.19585,4.91467 l 3.11433,2.24089 -5.64729,6.51876 -5.64731,6.51876 4.32858,7.12498 c 2.38071,3.91874 4.32857,7.49691 4.32857,7.95149 0,0.45458 -1.38769,1.10405 -3.08377,1.44327 -1.69606,0.33921 -4.34311,0.93283 -5.88232,1.31915 -2.77681,0.69693 -2.79886,0.65371 -2.83894,-5.56325 z m 26.38552,-1.18546 c -0.33148,-3.38234 -0.87764,-10.96251 -1.21368,-16.84483 -0.33603,-5.88232 -1.35581,-19.0369 -2.26616,-29.2324 -0.91036,-10.19549 -1.49433,-18.67087 -1.29774,-18.83416 0.19661,-0.1633 3.36547,-0.59752 7.04192,-0.96495 5.34693,-0.53437 6.68446,-0.36715 6.68446,0.83572 0,4.41374 3.4745,43.68769 4.91585,55.56618 1.93337,15.93332 2.09559,15.58253 -7.21724,15.60776 l -6.04469,0.0164 -0.60272,-6.1497 z m 18.18625,3.17833 c -1.40372,-2.27126 -5.60019,-44.56995 -6.23078,-62.80368 l -0.33289,-9.62561 18.18172,0.15772 c 9.99995,0.0867 26.36349,0.91385 36.36344,1.83803 28.72489,2.6547 47.83532,4.00108 48.42476,3.41163 0.29859,-0.29859 -0.0469,-1.25364 -0.76795,-2.12235 -1.27535,-1.5367 -4.466,-26.202183 -6.01466,-46.496768 l -0.76744,-10.056844 3.39874,0.67975 c 1.97362,0.394725 5.27065,0.03487 7.86298,-0.858306 2.45533,-0.845931 4.54873,-1.439051 4.652,-1.318035 0.10332,0.121004 0.73852,11.530108 1.41166,25.353563 0.67315,13.82345 1.51685,29.5303 1.8749,34.9041 0.64603,9.69599 0.62939,9.7847 -2.18022,11.62563 -2.61794,1.71534 -4.54274,1.76176 -25.55019,0.61626 -24.54168,-1.33821 -58.34342,-4.01535 -63.09308,-4.99704 l -2.94116,-0.6079 0.0276,12.65175 c 0.0249,11.43567 0.77284,22.25993 2.78519,40.30997 l 0.6988,6.26797 -3.12874,-0.6872 c -1.83184,-0.40234 -5.05368,-0.009 -7.77258,0.95126 -5.28852,1.86589 -6.18259,1.97031 -6.9021,0.8061 z M -760.53882,117.606 c -3.64407,-0.9523 -1.92101,-3.24329 2.94043,-3.90963 2.64664,-0.36277 6.0156,-0.96164 7.48659,-1.33083 2.1674,-0.54398 2.67452,-0.27624 2.67452,1.41204 0,3.47951 -6.81559,5.47111 -13.10154,3.82842 z m -3.61172,-6.84533 c -6.82521,-0.88106 -17.58817,-6.51258 -21.95732,-11.488776 -3.03015,-3.451137 -3.25356,-4.222919 -2.71972,-9.395276 0.33018,-3.199137 0.13812,-5.783102 -0.4443,-5.97724 -1.56189,-0.520628 -4.14581,-18.409729 -4.15038,-28.734251 -0.005,-11.532023 2.1404,-18.110319 7.72969,-23.699604 8.78289,-8.782894 20.18833,-10.768231 30.83695,-5.367768 10.38368,5.2661 15.64731,15.116656 19.25377,36.032275 1.10965,6.435463 1.82939,11.889016 1.5994,12.119004 -0.22998,0.229988 0.74398,2.130652 2.16437,4.22371 3.07019,4.524179 3.43736,11.374046 0.82017,15.301105 -8.50396,12.760131 -20.04369,18.676451 -33.13263,16.986821 z m 12.59291,-6.70665 c 11.33849,-2.66878 21.23256,-10.866371 21.23256,-17.59195 0,-3.595168 -5.53179,-8.760316 -9.38217,-8.760316 -1.72129,0 -6.30386,1.684483 -10.18347,3.743295 -7.81902,4.149357 -10.77717,4.493248 -18.49947,2.150598 -9.32631,-2.829225 -14.17952,-1.557393 -17.03724,4.464799 -4.64583,9.790386 4.30073,17.229614 20.87793,17.360384 3.82351,0.0302 9.66984,-0.5849 12.99186,-1.36681 z m -12.4571,-0.68396 c -0.36355,-0.58823 0.0893,-1.06951 1.00639,-1.06951 0.91706,0 1.66739,0.48128 1.66739,1.06951 0,0.58824 -0.45287,1.06952 -1.00639,1.06952 -0.55352,0 -1.30384,-0.48128 -1.66739,-1.06952 z m 5.55489,0.38558 c -0.85447,-0.85446 0.11143,-2.5246 1.46006,-2.5246 0.55352,0 1.00639,0.72192 1.00639,1.60427 0,1.6539 -1.26198,2.1248 -2.46645,0.92033 z m -17.31953,-1.45509 c -0.36355,-0.58823 0.11773,-1.06951 1.06951,-1.06951 0.95178,0 1.43306,0.48128 1.06951,1.06951 -0.36355,0.58823 -0.84483,1.06951 -1.06951,1.06951 -0.22468,0 -0.70597,-0.48128 -1.06951,-1.06951 z m 6.42785,-0.0174 c 0.36948,-0.59783 1.11981,-0.81007 1.6674,-0.47164 1.48345,0.91682 1.20685,1.55859 -0.67179,1.55859 -0.91706,0 -1.36508,-0.48913 -0.99561,-1.08695 z m 16.0776,0.0913 c -0.79096,-1.27977 1.22097,-2.547821 2.64554,-1.66739 1.1961,0.73923 0.41088,2.663 -1.08695,2.663 -0.5188,0 -1.22017,-0.44803 -1.55859,-0.99561 z m -8.59876,-2.20803 c -0.79392,-1.284599 2.14791,-6.421972 3.67746,-6.421972 0.52655,0 1.71866,-0.292127 2.64912,-0.649184 2.26383,-0.868712 2.15509,1.347896 -0.17991,3.66721 -3.74427,3.719126 -5.38897,4.629936 -6.14667,3.403946 z m 14.4354,-0.005 c 0,-0.588237 0.48128,-1.069518 1.06951,-1.069518 0.58823,0 1.06951,0.481281 1.06951,1.069518 0,0.58823 -0.48128,1.06951 -1.06951,1.06951 -0.58823,0 -1.06951,-0.48128 -1.06951,-1.06951 z m 3.20854,-2.139031 c 0,-0.588232 0.72192,-1.069513 1.60427,-1.069513 0.88234,0 1.60427,0.481281 1.60427,1.069513 0,0.588232 -0.72193,1.069513 -1.60427,1.069513 -0.88235,0 -1.60427,-0.481281 -1.60427,-1.069513 z m -21.18527,-9.705829 c 0.21078,-0.63235 0.84046,-1.149727 1.39928,-1.149727 0.55882,0 1.18849,0.517377 1.39927,1.149727 0.21079,0.632349 -0.41888,1.149726 -1.39927,1.149726 -0.98039,0 -1.61007,-0.517377 -1.39928,-1.149726 z m 6.21209,-0.454543 c 0,-0.882349 0.48128,-1.60427 1.06951,-1.60427 0.58823,0 1.06951,0.721921 1.06951,1.60427 0,0.882348 -0.48128,1.604269 -1.06951,1.604269 -0.58823,0 -1.06951,-0.721921 -1.06951,-1.604269 z m -11.76465,-1.069513 c 0,-0.980391 0.51738,-1.610067 1.14973,-1.399276 0.63235,0.210779 1.14973,0.840455 1.14973,1.399276 0,0.55882 -0.51738,1.188496 -1.14973,1.399275 -0.63235,0.210791 -1.14973,-0.418885 -1.14973,-1.399275 z m 16.57278,0.527205 c -0.3661,-0.592392 0.10753,-1.373768 1.05253,-1.736397 2.04773,-0.785792 3.18898,0.08011 2.20466,1.672793 -0.8881,1.436977 -2.39026,1.466313 -3.25719,0.06364 z m -22.25456,-0.683172 c -1.46934,-1.469351 -0.70721,-3.738761 1.13635,-3.383725 1.02941,0.198244 1.87165,1.035673 1.87165,1.860941 0,1.688612 -1.88693,2.643847 -3.008,1.522784 z m 27.6817,-2.396629 c -0.32236,-0.52158 0.13052,-1.543072 1.00639,-2.269988 1.32524,-1.099855 1.59249,-0.940701 1.59249,0.948337 0,2.29449 -1.51993,3.067438 -2.59888,1.321651 z m 5.28344,-2.242769 c -0.78881,-1.276324 0.21238,-3.225982 1.65662,-3.225982 1.30138,0 1.30982,2.894765 0.0108,3.697616 -0.54759,0.338437 -1.29792,0.126192 -1.66739,-0.471634 z m -15.33555,0.351549 c 2.09857,-1.899177 2.70185,-8.337816 0.88635,-9.459852 -0.62969,-0.389164 -1.07625,0.794412 -1.08589,2.878037 -0.0327,7.064882 -2.82578,7.459821 -5.87513,0.830745 l -1.70602,-3.708782 0.5658,4.274543 c 0.3112,2.351004 1.39071,4.877728 2.39892,5.614943 2.33217,1.705328 2.4705,1.692986 4.81597,-0.429634 z m -14.70906,-4.226715 c 3.33005,-1.277865 1.58849,-2.024599 -4.72185,-2.024599 -6.14003,0 -7.27754,0.390779 -5.70755,1.96077 0.8913,0.891311 8.15715,0.935771 10.4294,0.06385 z m 29.98351,-4.870059 c 1.49826,-0.682649 2.72411,-1.662141 2.72411,-2.176652 0,-0.51451 -0.93093,-0.437249 -2.06872,0.171679 -1.13779,0.608927 -4.1458,1.114507 -6.68446,1.123512 -3.37423,0.01198 -4.18423,0.295239 -3.01147,1.053139 2.16547,1.399436 5.74137,1.331533 9.04054,-0.171678 z m -28.52363,-1.497511 c 6.26336,-4.387035 7.35582,-13.345382 2.32606,-19.073961 -3.80164,-4.329848 -8.0973,-5.580643 -13.28538,-3.868417 -7.5013,2.475644 -11.52974,11.711305 -7.9918,18.322029 2.94862,5.509531 13.87752,8.17403 18.95112,4.620349 z m -12.84278,-2.136994 c -5.97642,-3.243287 -7.03737,-11.056496 -2.13864,-15.749775 4.50938,-4.320266 10.09803,-4.370116 15.13122,-0.134962 2.66151,2.239517 3.2906,3.584269 3.2906,7.034111 0,8.391741 -8.55758,13.04316 -16.28318,8.850626 z m 7.19232,-9.042625 c 0,-2.2925 -3.10765,-1.961379 -3.5584,0.379154 -0.27525,1.429297 0.16033,1.864877 1.58963,1.589627 1.08282,-0.208533 1.96877,-1.094486 1.96877,-1.968781 z m 32.23824,6.822274 c 4.39917,-2.08754 6.79898,-6.275186 6.79898,-11.864096 0,-4.788723 -2.11291,-8.225689 -6.42888,-10.45757 -8.59046,-4.442296 -19.23943,1.749542 -19.23943,11.186742 0,10.019882 9.45779,15.600985 18.86933,11.134924 z m -12.94979,-3.709873 c -4.24549,-3.727595 -4.88414,-7.486858 -2.16517,-12.744776 2.79144,-5.398035 8.40037,-6.838562 14.44876,-3.710814 6.3074,3.261683 7.39044,11.458098 2.19988,16.648648 -4.33629,4.336297 -9.40172,4.268779 -14.48347,-0.193058 z m 9.45471,-6.089978 c 0.84561,-1.368217 -1.11598,-3.770236 -2.42052,-2.963995 -1.71701,1.061171 -1.46282,3.817199 0.35206,3.817199 0.84763,0 1.77844,-0.383944 2.06846,-0.853204 z m -132.40655,43.989633 c -0.91916,-2.395291 0.15255,-3.164891 5.53558,-3.975101 3.95709,-0.59559 4.54543,-0.427858 4.54543,1.295854 0,3.699227 -8.79286,6.036127 -10.08101,2.679247 z m 81.74434,-3.737819 c 0.003,-0.787001 0.50665,-3.233779 1.11861,-5.437296 l 1.11263,-4.006396 3.14869,2.327923 c 2.79678,2.067743 5.06464,5.808226 4.07,6.712798 -0.20077,0.182587 -2.41048,0.6699 -4.91047,1.082925 -3.45797,0.571291 -4.544,0.408618 -4.53946,-0.679954 z M -882.91307,91.8728 c -3.49473,-8.35527 -6.91042,-24.2005 -5.76376,-26.737823 1.11451,-2.46619 4.34189,-3.36257 4.34189,-1.20594 0,3.350613 3.37519,-2.22833 5.85749,-9.682001 1.52414,-4.576585 3.46146,-9.232966 4.30515,-10.347517 4.03468,-5.329992 0.45082,13.524665 -3.93476,20.700701 -2.33765,3.825049 -2.25326,3.944963 1.71456,2.436404 2.76319,-1.050561 5.96123,-0.498425 5.96123,1.029203 0,0.456693 -0.96256,1.082059 -2.13902,1.389715 -1.17647,0.307656 -2.13903,1.073791 -2.13903,1.702536 0,0.793611 0.86334,0.814926 2.82336,0.06973 2.21282,-0.841322 3.24766,-0.689451 4.7855,0.702274 2.69153,2.435795 3.42702,5.275587 2.03838,7.8703 -1.34906,2.520735 -5.36919,2.951374 -5.36919,0.575152 0,-0.882348 0.48128,-1.604269 1.06951,-1.604269 0.58824,0 1.06952,-0.738852 1.06952,-1.641895 0,-1.310485 -0.43177,-1.410827 -2.13903,-0.497131 -1.82145,0.974807 -2.13902,2.239367 -2.13902,8.517344 0,8.156127 -1.4441,10.733888 -6.01329,10.733888 -2.05326,0 -3.03068,-0.905449 -4.32949,-4.010673 z m 155.62914,-5.080186 c -0.21053,-2.647045 -0.0281,-4.812809 0.40533,-4.812809 0.73076,0 5.10963,7.754204 5.10963,9.048251 0,0.317549 -1.15474,0.577366 -2.56609,0.577366 -2.27158,0 -2.61002,-0.552372 -2.94887,-4.812808 z m -66.99802,1.390366 c -1.56602,-1.566023 -1.70614,-6.203175 -0.18743,-6.203175 1.04258,0 3.18207,4.361367 3.18207,6.486703 0,1.387822 -1.46167,1.249437 -2.99464,-0.283528 z m -12.24592,-4.888936 c -2.7941,-0.929385 -5.08019,-2.070502 -5.08019,-2.535826 0,-0.465323 2.24395,-3.372602 4.98654,-6.460617 l 4.98655,-5.614579 -4.18441,-1.862675 c -2.30142,-1.024465 -6.4795,-2.457516 -9.28462,-3.184539 -2.8051,-0.727033 -4.93648,-1.813027 -4.73639,-2.413313 0.30647,-0.919417 13.05569,-8.406981 16.18382,-9.504686 0.5498,-0.19294 -2.50904,-6.005593 -6.79743,-12.917021 -4.28839,-6.911417 -7.62592,-12.699108 -7.41673,-12.861524 0.2092,-0.162417 4.2306,0.07337 8.93645,0.523943 4.70586,0.450586 11.30435,0.853493 14.66332,0.895343 l 6.1072,0.0761 -0.65854,-16.042694 c -0.39375,-9.5921726 -0.26066,-16.0426939 0.33099,-16.0426939 0.54425,0 5.5427,4.57216779 11.10767,10.1603728 5.56496,5.5882051 10.45193,10.1603731 10.85993,10.1603731 0.40798,0 4.55188,-4.933129 9.20865,-10.9625078 11.40181,-14.7625512 11.55682,-14.8710642 12.40492,-8.683461 0.37477,2.7342312 0.6814,10.2306826 0.6814,16.6587758 0,11.63521 0.0108,11.684001 2.4064,10.918251 1.32352,-0.423056 7.16104,-2.139977 12.97226,-3.815369 10.2791,-2.963503 13.49819,-3.571211 13.49819,-2.548222 0,0.27387 -2.58671,4.485078 -5.74823,9.358238 -6.25199,9.636772 -10.6993,17.902813 -10.00542,18.596691 0.24105,0.241047 4.12486,1.024829 8.63071,1.741745 4.50585,0.716905 8.1774,1.555927 8.15902,1.864492 -0.0184,0.308566 -2.68382,3.448709 -5.92317,6.978102 -8.74579,9.528846 -8.7547,9.561916 -3.58502,13.306805 2.42611,1.757466 5.32483,3.485393 6.4416,3.839851 3.10029,0.983983 2.46045,2.203079 -2.42485,4.620135 -5.18456,2.56512 -6.23977,2.231785 -6.23977,-1.971091 0,-2.193282 -0.91822,-3.726429 -3.20854,-5.357276 -2.4125,-1.717851 -3.20921,-3.128988 -3.21124,-5.687766 -0.004,-5.240977 -5.13089,-23.170773 -8.04914,-28.150414 -3.66718,-6.25756 -11.48291,-12.787418 -17.82811,-14.894957 -13.18387,-4.378971 -28.97801,3.482537 -35.48563,17.66292 -1.90875,4.15925 -2.21181,6.747044 -2.08364,17.792246 0.0825,7.108796 0.66487,14.78991 1.2942,17.069116 0.99568,3.606077 0.8697,4.436244 -0.97052,6.395078 -1.16312,1.238068 -2.11475,2.821621 -2.11475,3.518997 0,1.644804 -2.53689,1.464719 -8.82348,-0.626339 z m 76.4167,-5.806193 c -1.53465,-1.534644 -1.71098,-5.133662 -0.25153,-5.133662 0.56754,0 1.57468,1.01423 2.23811,2.253849 1.42482,2.662317 -0.0566,4.809813 -1.98658,2.879813 z m 82.83356,-17.4012 c -1.1786,-3.071406 -0.79662,-3.775156 2.04912,-3.775156 1.50926,0 3.66319,-0.49188 4.78652,-1.093074 1.71967,-0.920337 2.15138,-0.658959 2.73192,1.654076 0.86211,3.434923 0.51582,3.76598 -4.66642,4.461067 -3.30625,0.443452 -4.35485,0.176684 -4.90114,-1.246913 z m -1.25852,-9.472366 c -2.53705,-2.537056 -3.7145,-4.70068 -3.7145,-6.825578 0,-3.706942 -1.78686,-6.248993 -5.08019,-7.227276 -3.00762,-0.893418 -3.20613,1.065085 -0.26738,2.637857 2.95945,1.583853 2.67706,3.208539 -0.55768,3.208539 -3.25349,0 -5.38961,-3.881968 -4.37048,-7.942481 0.58055,-2.313111 1.29956,-2.752648 4.50292,-2.752648 4.21608,0 4.69068,-2.415121 0.59299,-3.01762 -3.58015,-0.526415 -1.59145,-2.329945 2.56916,-2.329945 2.0241,0 3.68017,-0.314458 3.68017,-0.698798 0,-0.38433 -2.35326,-3.18701 -5.22946,-6.22817 -5.40937,-5.719616 -10.17485,-13.7046636 -9.45957,-15.8504916 0.22502,-0.6750765 3.91509,3.2111163 8.20014,8.6359956 4.28505,5.42488 8.01369,9.863412 8.28586,9.863412 0.27217,0 1.21581,-0.720969 2.09699,-1.602151 2.39736,-2.397346 5.47963,-0.222748 6.45811,4.556306 0.45018,2.198727 0.83186,9.532409 0.84816,16.297078 0.0289,11.994031 -0.0308,12.307976 -2.40554,12.644937 -1.64683,0.233678 -3.63771,-0.856979 -6.1497,-3.368966 z"
       id="path1679"
       inkscape:connector-curvature="0" />
  </g>
</svg>
