<?xml version="1.0" encoding="UTF-8" standalone="no"?>
<!-- Created with Inkscape (http://www.inkscape.org/) -->

<svg
   xmlns:dc="http://purl.org/dc/elements/1.1/"
   xmlns:cc="http://creativecommons.org/ns#"
   xmlns:rdf="http://www.w3.org/1999/02/22-rdf-syntax-ns#"
   xmlns:svg="http://www.w3.org/2000/svg"
   xmlns="http://www.w3.org/2000/svg"
   xmlns:sodipodi="http://sodipodi.sourceforge.net/DTD/sodipodi-0.dtd"
   xmlns:inkscape="http://www.inkscape.org/namespaces/inkscape"
   width="103.25826mm"
   height="88.06855mm"
   viewBox="0 0 103.25825 88.068556"
   version="1.1"
   id="svg8"
   inkscape:version="0.92.3 (2405546, 2018-03-11)"
   sodipodi:docname="30.svg">
  <defs
     id="defs2" />
  <sodipodi:namedview
     id="base"
     pagecolor="#ffffff"
     bordercolor="#666666"
     borderopacity="1.0"
     inkscape:pageopacity="0.0"
     inkscape:pageshadow="2"
     inkscape:zoom="0.49497475"
     inkscape:cx="-82.017745"
     inkscape:cy="20.770155"
     inkscape:document-units="mm"
     inkscape:current-layer="layer1"
     showgrid="false"
     fit-margin-top="0"
     fit-margin-left="0"
     fit-margin-right="0"
     fit-margin-bottom="0"
     inkscape:window-width="1920"
     inkscape:window-height="1001"
     inkscape:window-x="-9"
     inkscape:window-y="-9"
     inkscape:window-maximized="1" />
  <metadata
     id="metadata5">
    <rdf:RDF>
      <cc:Work
         rdf:about="">
        <dc:format>image/svg+xml</dc:format>
        <dc:type
           rdf:resource="http://purl.org/dc/dcmitype/StillImage" />
        <dc:title></dc:title>
      </cc:Work>
    </rdf:RDF>
  </metadata>
  <g
     inkscape:label="Layer 1"
     inkscape:groupmode="layer"
     id="layer1"
     transform="translate(476.81755,-241.25705)">
    <path
       style="fill:#BBBBBB;stroke-width:0.19959258"
       d="m -428.24532,329.28888 c -7.60865,-0.76768 -13.41185,-2.59258 -19.23136,-6.04758 -4.2562,-2.52687 -7.91423,-5.5637 -10.9525,-9.09256 -5.56289,-6.46111 -9.12813,-14.25111 -10.37246,-22.66364 -0.41767,-2.82377 -0.46767,-9.2468 -0.0932,-11.97556 0.40229,-2.93163 1.34206,-6.85373 1.61716,-6.74916 0.16225,0.0617 2.81582,3.08663 3.07369,3.50387 0.0724,0.11712 -0.0392,1.23204 -0.24797,2.47759 -1.65134,9.85214 0.53125,20.15549 6.01838,28.41085 1.89911,2.85721 5.27703,6.83862 5.55132,6.54311 0.2297,-0.24746 3.38035,-10.07931 3.38035,-10.54865 0,-0.47182 0.80249,-0.8441 4.51954,-2.09662 2.72853,-0.91943 3.66445,-1.31709 3.66648,-1.55784 0.002,-0.17781 0.0492,-0.50291 0.10606,-0.72247 0.0875,-0.33806 -0.11344,-0.4864 -1.31242,-0.96883 -2.48672,-1.00055 -3.94885,-2.82807 -5.01668,-6.27033 -0.91306,-2.94333 -1.17872,-4.43897 -1.40489,-7.90944 -0.13152,-2.01811 -0.29746,-3.40746 -0.38142,-3.19348 -0.24454,0.62324 -0.19546,2.50946 0.13034,5.00906 0.57317,4.39743 1.43206,7.33521 2.81503,9.6286 0.36806,0.61035 0.66942,1.20837 0.6697,1.32894 6e-4,0.28405 -1.6282,0.92641 -1.8321,0.7225 -0.0855,-0.0855 -0.22557,-0.78147 -0.31122,-1.54657 l -0.15573,-1.39107 -2.0701,0.0689 -2.07011,0.0689 0.14418,-0.56788 c 0.64,-2.52082 0.8491,-3.85998 0.63097,-4.04101 -0.25179,-0.20898 -1.34169,-0.5887 -3.1768,-1.10683 -0.65874,-0.18599 -1.21113,-0.46745 -1.28252,-0.65349 -0.09,-0.23458 0.39466,-0.82506 1.71776,-2.09272 2.09177,-2.00413 2.1035,-2.05717 0.73411,-3.31943 -1.06033,-0.97738 -1.96566,-1.45337 -3.85681,-2.02779 -0.79455,-0.24134 -1.44463,-0.4656 -1.44463,-0.49836 0,-0.0328 1.23498,-0.9339 2.7444,-2.00253 1.50942,-1.06863 2.82144,-2.01278 2.9156,-2.09811 0.34997,-0.31712 -1.19622,-2.70263 -2.92336,-4.51025 -0.9648,-1.00975 -1.6646,-1.89129 -1.5551,-1.95897 0.10951,-0.0677 1.99915,-0.27134 4.1992,-0.45259 l 4.00011,-0.32954 v -0.62552 c 0,-0.8378 -0.47939,-2.40302 -1.32512,-4.32656 -0.38301,-0.87112 -0.66818,-1.65529 -0.6337,-1.74259 0.12808,-0.32429 2.71707,0.4049 4.50441,1.26866 l 1.84702,0.8926 0.28377,-0.44086 c 0.49929,-0.77567 1.10226,-2.97466 1.39937,-5.10335 0.15873,-1.13728 0.33913,-2.11832 0.4009,-2.18008 0.17712,-0.17713 1.78828,1.59786 3.27411,3.60707 0.74772,1.01109 1.50842,1.96091 1.69046,2.11071 0.29285,0.241 0.56931,0.0448 2.40079,-1.70382 1.9404,-1.85261 4.01088,-3.25897 4.79794,-3.25897 0.276,0 0.32134,0.31106 0.32134,2.20454 0,1.2125 0.14915,3.10262 0.33145,4.20026 l 0.33144,1.99573 0.61662,-0.13069 c 0.33914,-0.0719 1.77067,-0.57436 3.18117,-1.11663 1.4105,-0.54227 2.64036,-0.95897 2.73303,-0.92599 0.16068,0.0572 -0.94986,2.15855 -2.8053,5.30819 -0.49256,0.83612 -0.78079,1.52513 -0.67703,1.61841 0.0994,0.0893 1.52793,0.36545 3.17457,0.61358 1.64664,0.24814 3.06344,0.51452 3.14846,0.59197 0.085,0.0774 -0.40898,0.66541 -1.09776,1.30659 -2.8605,2.66277 -3.75338,3.57631 -3.68778,3.77311 0.0381,0.1143 0.60166,0.42071 1.25236,0.68091 0.6507,0.26021 1.83985,0.74538 2.64257,1.07816 l 1.45947,0.60506 -0.46151,0.49363 c -0.5431,0.58089 -3.46514,2.01223 -5.45133,2.6703 -0.76843,0.2546 -1.43592,0.49076 -1.4833,0.5248 -0.23787,0.1709 1.39382,1.50079 2.79027,2.27417 0.86939,0.48149 1.58215,0.92626 1.58392,0.98838 0.006,0.21101 -1.48873,0.93354 -2.85533,1.38023 -0.74888,0.24477 -1.40204,0.55045 -1.45148,0.67928 -0.0494,0.12883 0.0918,0.76213 0.31373,1.40735 0.60626,1.7621 0.58949,1.80397 -0.8281,2.06759 -0.67744,0.12599 -1.31508,0.31244 -1.41697,0.41433 -0.27154,0.27153 0.004,0.9531 0.71108,1.75831 0.5843,0.66548 0.60021,0.72411 0.26336,0.97042 -0.19717,0.14418 -0.72534,0.32412 -1.1737,0.39987 -0.63674,0.10758 -1.12427,0.42906 -2.22701,1.46852 -0.87509,0.82488 -1.77222,1.46718 -2.35987,1.68955 -0.90715,0.34327 -0.94806,0.39227 -0.94806,1.13549 0,1.0071 0.25321,1.13619 4.09323,2.08678 1.64576,0.40741 3.09536,0.84298 3.22133,0.96793 0.22485,0.22304 4.03705,13.23081 4.47216,15.25964 0.21854,1.01902 0.23303,1.0347 0.95384,1.03169 0.40257,-0.002 0.82475,-0.069 0.93819,-0.14969 0.11344,-0.0807 0.45629,-0.99286 0.76188,-2.02712 0.5971,-2.02079 1.09542,-3.13841 1.84587,-4.13984 l 0.4731,-0.63131 1.25054,0.38761 c 3.12497,0.96858 6.07448,1.42987 7.53771,1.17886 0.51882,-0.089 0.68742,-0.16609 0.39918,-0.18252 -7.46559,-0.42553 -11.17453,-2.42119 -13.90146,-7.47993 -0.70494,-1.30774 -0.83402,-1.31673 -0.38514,-0.0268 0.15271,0.43882 0.23958,0.85945 0.19304,0.93474 -0.16213,0.26234 -1.87748,-0.47669 -2.27272,-0.97916 -0.21898,-0.27838 -0.49084,-0.85041 -0.60414,-1.27117 -0.23716,-0.88073 0.06,-1.81927 0.7787,-2.45974 0.50176,-0.44712 0.43212,-0.82572 -0.37015,-2.01233 -0.6114,-0.90431 -1.00228,-1.93008 -1.00228,-2.63027 0,-0.26124 0.27012,-1.29464 0.60026,-2.29645 0.33015,-1.00182 0.65816,-2.44446 0.72893,-3.20588 0.12382,-1.33227 0.18667,-1.46455 1.66912,-3.5131 2.51519,-3.47566 4.95771,-5.47698 7.7205,-6.32592 1.40151,-0.43065 4.36838,-0.88816 5.76555,-0.88908 1.61782,-0.001 3.73329,0.56158 6.45682,1.71731 2.03005,0.86145 2.35037,1.07111 3.4203,2.23876 2.29442,2.50395 3.90341,5.40226 4.17456,7.5197 0.66942,5.22768 0.67992,5.43818 0.33345,6.6844 -0.44188,1.58935 -0.42195,2.51892 0.0674,3.14097 0.48583,0.61763 0.51443,1.6474 0.0717,2.58042 -0.23629,0.49793 -0.63947,0.84764 -1.44756,1.25557 -0.87177,0.44006 -1.39107,0.91502 -2.3426,2.14258 -0.6724,0.86745 -1.68029,1.88782 -2.23976,2.26748 -0.55947,0.37965 -1.01953,0.75553 -1.02236,0.83527 -0.008,0.22314 2.78425,4.23709 3.00015,4.31295 0.30489,0.10713 4.55698,-4.30083 5.97651,-6.19559 1.75227,-2.33887 3.4726,-5.1941 4.48804,-7.4488 l 0.83994,-1.86502 1.37769,1.88113 c 0.75773,1.03461 1.43302,1.88204 1.50066,1.88317 0.1772,0.003 1.24068,-2.45466 1.76968,-4.0896 0.24864,-0.76843 0.51695,-1.46866 0.59624,-1.55605 0.44376,-0.48907 6.25726,9.33291 7.77504,13.13602 1.24253,3.11342 1.50675,4.30054 1.50955,6.78254 0.002,2.06829 -0.0322,2.25822 -0.5963,3.27743 -1.18544,2.14192 -3.15937,3.04876 -6.64064,3.05075 -3.4454,0.002 -5.61338,-0.4968 -11.22289,-2.58202 -1.92108,-0.71412 -3.92686,-1.51757 -4.4573,-1.78545 l -0.96442,-0.48707 -1.0315,0.78879 c -7.45401,5.70005 -16.12329,8.69497 -25.78098,8.90639 -1.75642,0.0385 -3.55275,0.0337 -3.99185,-0.0106 z m 46.07011,-9.47603 c 1.08785,-0.30208 2.27882,-1.44667 2.55149,-2.45212 0.65899,-2.43004 -0.51631,-5.76136 -3.80274,-10.77861 l -1.65515,-2.52685 -1.16891,2.10196 c -1.99849,3.59375 -4.09873,6.4935 -6.74499,9.31264 l -1.62409,1.7302 2.08935,0.81689 c 1.86368,0.72866 4.9283,1.63895 6.29916,1.87103 1.01864,0.17246 3.31759,0.12987 4.05588,-0.0751 z m -47.12393,-2.51024 c -0.68937,-0.61408 -1.3437,-1.28524 -1.45406,-1.49146 -0.28062,-0.52433 0.0361,-1.03271 1.09876,-1.76386 0.48411,-0.33308 1.02167,-0.74706 1.19456,-0.91995 0.50285,-0.50286 0.38665,-1.93419 -0.29596,-3.64566 -0.694,-1.73998 -3.1589,-6.53442 -3.8173,-7.42496 -1.01284,-1.36994 -0.69264,-0.39434 0.81904,2.49549 2.02938,3.8795 3.23358,6.60461 3.25525,7.36659 0.0119,0.41968 -0.15074,0.73008 -0.56342,1.07505 -1.05048,0.87813 -2.47633,2.29008 -2.47633,2.45218 0,0.48467 2.74404,2.99083 3.2613,2.97858 0.12736,-0.003 -0.33246,-0.50792 -1.02184,-1.122 z m 15.595,-15.62422 c 1.6658,-0.8064 2.93125,-3.22582 2.63997,-5.04738 -0.1666,-1.04186 -0.81165,-2.28261 -1.33129,-2.56071 -0.47795,-0.25579 -0.43051,-0.28647 -0.85842,0.555 -0.18048,0.35491 -0.60426,0.78808 -0.94173,0.96259 -0.81607,0.42201 -2.87235,0.83305 -5.01815,1.0031 l -1.74644,0.13841 v 0.87713 c 0,1.98582 1.43867,3.78067 3.59138,4.48055 0.86914,0.28256 2.6461,0.0844 3.66468,-0.40869 z m 10.87741,0.17319 c 2.15766,-0.46273 3.8139,-2.19157 3.88607,-4.0564 0.0189,-0.48887 -0.0274,-0.9507 -0.10302,-1.02628 -0.0756,-0.0756 -1.15315,-0.2164 -2.39459,-0.31292 -3.61909,-0.28139 -4.80174,-0.72215 -5.48547,-2.04434 -0.28727,-0.55551 -0.30175,-0.55966 -0.69938,-0.20006 -1.56669,1.41684 -1.62015,4.59829 -0.10454,6.22152 0.51475,0.5513 1.32154,0.99891 2.43548,1.35121 1.01153,0.3199 1.25632,0.32658 2.46545,0.0673 z m -27.44053,-22.19234 c 0.0662,-0.247 0.12158,-0.77359 0.12308,-1.17021 0.003,-0.69617 -0.0474,-0.74624 -1.44432,-1.44666 -2.2129,-1.10952 -4.65197,-1.23293 -5.53948,-0.2803 -0.40348,0.43308 -0.55241,1.80868 -0.24565,2.26889 0.0806,0.12099 0.95499,0.28315 1.94297,0.36035 0.98799,0.0772 2.38014,0.2594 3.09369,0.4049 1.83059,0.37325 1.93483,0.36635 2.06971,-0.13697 z m -9.33043,-0.509 c 0.44764,-2.38612 -1.13285,-4.40687 -3.48825,-4.45994 -2.38723,-0.0538 -4.24275,2.06771 -3.78093,4.32289 l 0.16403,0.80099 h 3.49029 3.4903 z m 54.98479,16.83849 -1.64886,-1.90184 0.31486,-1.52249 c 0.90943,-4.39752 0.84156,-10.65774 -0.16749,-15.44997 -2.37097,-11.26031 -9.54684,-21.08376 -19.45169,-26.6285 -6.07424,-3.40036 -12.61855,-5.10672 -19.58556,-5.10672 -9.65762,0 -18.41201,3.21694 -25.94703,9.53466 -3.95325,3.31458 -7.25406,7.58648 -9.75868,12.62965 l -1.34292,2.70403 -1.37654,-1.85576 c -0.75711,-1.02067 -1.42528,-1.85477 -1.48485,-1.85355 -0.15011,0.003 -1.05711,2.16449 -1.73695,4.13923 -0.31177,0.9056 -0.61822,1.64659 -0.681,1.64664 -0.0628,5e-5 -0.74759,-0.96543 -1.52181,-2.14552 -5.6267,-8.57639 -8.16628,-14.76299 -7.77746,-18.94641 0.14365,-1.54554 0.49684,-2.399 1.41198,-3.41196 1.14895,-1.27174 2.38205,-1.69795 5.20714,-1.79978 4.18646,-0.1509 8.5446,0.94482 15.41714,3.87614 l 2.04445,0.87202 1.59388,-1.1818 c 5.31237,-3.93888 11.49042,-6.56582 18.46793,-7.85266 3.24279,-0.59806 11.43916,-0.6437 14.57026,-0.0811 9.86962,1.77327 17.88091,6.02131 24.76886,13.13385 9.05626,9.35155 13.4522,22.41678 11.9446,35.50069 -0.29247,2.53825 -1.13014,6.74306 -1.46117,7.33458 -0.1061,0.18959 -0.63458,-0.29021 -1.79909,-1.63339 z m -79.41487,-31.49944 c 1.71233,-3.35224 4.25603,-6.88345 6.96038,-9.66251 l 1.40097,-1.43967 -0.47637,-0.31213 c -0.91559,-0.59992 -4.65357,-1.88328 -6.7319,-2.31127 -3.74987,-0.7722 -6.40088,-0.28466 -7.42724,1.36591 -0.65592,1.05484 -0.61346,3.17881 0.10537,5.2707 0.85662,2.49289 2.64018,5.93475 3.877,7.48173 0.63229,0.79084 1.19452,1.44119 1.24941,1.44522 0.0549,0.004 0.52396,-0.82306 1.04238,-1.83798 z"
       id="path1898"
       inkscape:connector-curvature="0" />
  </g>
</svg>
